<svg width="790" height="90" viewBox="0 0 790 90" fill="none" xmlns="http://www.w3.org/2000/svg">
<rect x="67" y="3.5" width="83" height="67" transform="rotate(90 67 3.5)" fill="#FFBDBD"/>
<circle cx="67.5" cy="37" r="33.5" fill="#4C40F7"/>
<path d="M166.544 55.296V78H155.192V17.8H178.756C181.852 17.8 184.547 18.316 186.84 19.348C189.133 20.3227 191.025 21.6413 192.516 23.304C194.064 24.9093 195.211 26.7727 195.956 28.894C196.759 30.958 197.16 33.0793 197.16 35.258V37.322C197.16 39.558 196.759 41.7653 195.956 43.944C195.211 46.0653 194.064 47.986 192.516 49.706C191.025 51.3687 189.133 52.716 186.84 53.748C184.547 54.78 181.852 55.296 178.756 55.296H166.544ZM166.544 44.46H177.638C180.161 44.46 182.139 43.772 183.572 42.396C185.063 41.02 185.808 39.2427 185.808 37.064V36.032C185.808 33.8533 185.063 32.076 183.572 30.7C182.139 29.324 180.161 28.636 177.638 28.636H166.544V44.46ZM278.847 78H267.495V59.94C267.495 58.564 267.122 57.446 266.377 56.586C265.689 55.726 264.514 55.296 262.851 55.296H249.779V78H238.427V17.8H261.475C264.571 17.8 267.294 18.23 269.645 19.09C271.996 19.95 273.945 21.154 275.493 22.702C277.098 24.1927 278.302 25.9413 279.105 27.948C279.965 29.9547 280.395 32.1047 280.395 34.398V36.462C280.395 38.9273 279.736 41.2493 278.417 43.428C277.098 45.5493 275.063 47.1833 272.311 48.33V49.878C274.318 50.1073 275.894 50.8813 277.041 52.2C278.245 53.5187 278.847 55.1813 278.847 57.188V78ZM249.779 44.46H260.615C263.367 44.46 265.46 43.8293 266.893 42.568C268.326 41.2493 269.043 39.4147 269.043 37.064V36.032C269.043 34.0253 268.326 32.3053 266.893 30.872C265.46 29.3813 263.367 28.636 260.615 28.636H249.779V44.46ZM319.426 41.192C319.426 33.3947 321.376 27.346 325.274 23.046C329.23 18.746 334.677 16.596 341.614 16.596C348.552 16.596 353.97 18.746 357.868 23.046C361.824 27.346 363.802 33.3947 363.802 41.192V54.608C363.802 62.6347 361.824 68.7407 357.868 72.926C353.97 77.1113 348.552 79.204 341.614 79.204C334.677 79.204 329.23 77.1113 325.274 72.926C321.376 68.7407 319.426 62.6347 319.426 54.608V41.192ZM341.614 68.884C343.678 68.884 345.398 68.5687 346.774 67.938C348.15 67.25 349.268 66.304 350.128 65.1C350.988 63.896 351.59 62.4627 351.934 60.8C352.278 59.1373 352.45 57.3027 352.45 55.296V40.504C352.45 38.612 352.25 36.8347 351.848 35.172C351.447 33.5093 350.816 32.076 349.956 30.872C349.096 29.668 347.978 28.722 346.602 28.034C345.226 27.2887 343.564 26.916 341.614 26.916C339.665 26.916 338.002 27.2887 336.626 28.034C335.25 28.722 334.132 29.668 333.272 30.872C332.412 32.076 331.782 33.5093 331.38 35.172C330.979 36.8347 330.778 38.612 330.778 40.504V55.296C330.778 57.3027 330.95 59.1373 331.294 60.8C331.638 62.4627 332.24 63.896 333.1 65.1C333.96 66.304 335.078 67.25 336.454 67.938C337.83 68.5687 339.55 68.884 341.614 68.884ZM406.015 17.8H444.543V28.636H417.367V42.396H444.027V53.232H417.367V78H406.015V17.8ZM485.724 41.192C485.724 33.3947 487.674 27.346 491.572 23.046C495.528 18.746 500.975 16.596 507.912 16.596C514.85 16.596 520.268 18.746 524.166 23.046C528.122 27.346 530.1 33.3947 530.1 41.192V54.608C530.1 62.6347 528.122 68.7407 524.166 72.926C520.268 77.1113 514.85 79.204 507.912 79.204C500.975 79.204 495.528 77.1113 491.572 72.926C487.674 68.7407 485.724 62.6347 485.724 54.608V41.192ZM507.912 68.884C509.976 68.884 511.696 68.5687 513.072 67.938C514.448 67.25 515.566 66.304 516.426 65.1C517.286 63.896 517.888 62.4627 518.232 60.8C518.576 59.1373 518.748 57.3027 518.748 55.296V40.504C518.748 38.612 518.548 36.8347 518.146 35.172C517.745 33.5093 517.114 32.076 516.254 30.872C515.394 29.668 514.276 28.722 512.9 28.034C511.524 27.2887 509.862 26.916 507.912 26.916C505.963 26.916 504.3 27.2887 502.924 28.034C501.548 28.722 500.43 29.668 499.57 30.872C498.71 32.076 498.08 33.5093 497.678 35.172C497.277 36.8347 497.076 38.612 497.076 40.504V55.296C497.076 57.3027 497.248 59.1373 497.592 60.8C497.936 62.4627 498.538 63.896 499.398 65.1C500.258 66.304 501.376 67.25 502.752 67.938C504.128 68.5687 505.848 68.884 507.912 68.884ZM571.798 17.8H583.15V67.164H610.498V78H571.798V17.8ZM654.087 17.8H694.335V28.636H679.887V67.164H694.335V78H654.087V67.164H668.535V28.636H654.087V17.8ZM735.172 41.192C735.172 33.3947 737.121 27.346 741.02 23.046C744.976 18.746 750.422 16.596 757.36 16.596C764.297 16.596 769.715 18.746 773.614 23.046C777.57 27.346 779.548 33.3947 779.548 41.192V54.608C779.548 62.6347 777.57 68.7407 773.614 72.926C769.715 77.1113 764.297 79.204 757.36 79.204C750.422 79.204 744.976 77.1113 741.02 72.926C737.121 68.7407 735.172 62.6347 735.172 54.608V41.192ZM757.36 68.884C759.424 68.884 761.144 68.5687 762.52 67.938C763.896 67.25 765.014 66.304 765.874 65.1C766.734 63.896 767.336 62.4627 767.68 60.8C768.024 59.1373 768.196 57.3027 768.196 55.296V40.504C768.196 38.612 767.995 36.8347 767.594 35.172C767.192 33.5093 766.562 32.076 765.702 30.872C764.842 29.668 763.724 28.722 762.348 28.034C760.972 27.2887 759.309 26.916 757.36 26.916C755.41 26.916 753.748 27.2887 752.372 28.034C750.996 28.722 749.878 29.668 749.018 30.872C748.158 32.076 747.527 33.5093 747.126 35.172C746.724 36.8347 746.524 38.612 746.524 40.504V55.296C746.524 57.3027 746.696 59.1373 747.04 60.8C747.384 62.4627 747.986 63.896 748.846 65.1C749.706 66.304 750.824 67.25 752.2 67.938C753.576 68.5687 755.296 68.884 757.36 68.884Z" fill="#111029"/>
</svg>
